<?xml version="1.0" encoding="UTF-8"?>
<svg id="Calque_2" data-name="Calque 2" xmlns="http://www.w3.org/2000/svg" viewBox="0 0 52.29 122.16">
  <defs>
    <style>
      .cls-1 {
        stroke: #f9d25f;
      }

      .cls-1, .cls-2 {
        fill: none;
        stroke-miterlimit: 10;
        stroke-width: 3px;
      }

      .cls-3 {
        fill: #f9d25f;
      }

      .cls-4 {
        fill: #f4c85b;
      }

      .cls-5 {
        fill: #ffe07d;
      }

      .cls-6 {
        fill: #f4c245;
      }

      .cls-7 {
        fill: #dda526;
      }

      .cls-2 {
        stroke: #ffe07d;
      }

      .cls-8 {
        fill: #d3a648;
      }
    </style>
  </defs>
  <g id="Calque_1-2" data-name="Calque 1">
    <g>
      <path class="cls-1" d="M11.61,20.13l-6.27,1.33c-1.29.27-2.13,1.57-1.86,2.88l1.31,6.38c.27,1.32,1.54,2.16,2.83,1.89l6.27-1.33c1.29-.27,2.13-1.57,1.86-2.88l-1.31-6.38c-.27-1.32-1.54-2.16-2.83-1.89Z"/>
      <rect class="cls-2" x="18" y="32.49" width="11.28" height="11.28" rx="5.64" ry="5.64" transform="translate(-5.01 3.61) rotate(-7.9)"/>
      <rect class="cls-2" x="6.18" y="42.69" width="10.25" height="10.25" rx="5.13" ry="5.13" transform="translate(9.98 -1.3) rotate(11.76)"/>
      <rect class="cls-2" x="31.49" y="44.19" width="9.27" height="9.27" rx="4.63" ry="4.63" transform="translate(-15.62 17.02) rotate(-21.92)"/>
      <rect class="cls-2" x="25.55" y="17.56" width="11.07" height="11.07" rx="5.54" ry="5.54" transform="translate(63.47 44.32) rotate(176.62)"/>
      <path class="cls-1" d="M46.26,11.86l-4.42,1.22c-1.34.37-2.11,1.7-1.72,2.97l1.29,4.18c.39,1.27,1.8,2,3.14,1.63l4.42-1.22c1.34-.37,2.11-1.7,1.72-2.97l-1.29-4.18c-.39-1.27-1.8-2-3.14-1.63Z"/>
      <path class="cls-1" d="M45.08,32.57l-4.32-1.54c-1.31-.47-2.71.18-3.11,1.44l-1.35,4.16c-.41,1.26.32,2.67,1.63,3.14l4.32,1.54c1.31.47,2.71-.18,3.11-1.44l1.35-4.16c.41-1.26-.32-2.67-1.63-3.14Z"/>
      <rect class="cls-2" x="12.84" y="5.92" width="10.06" height="10.06" rx="5.03" ry="5.03" transform="translate(38.2 16.04) rotate(162.59)"/>
      <g>
        <path class="cls-8" d="M44.94,18.45l2.86-.85c.39-.12.61-.51.49-.88l-.24-.72c-.12-.37-.54-.58-.93-.46l-2.86.85c-.39.12-.61.51-.49.88l.24.72c.12.37.54.58.93.46Z"/>
        <path class="cls-8" d="M40.67,7.88l3.35,10.15c.12.35.51.54.88.44l.84-.25c.37-.11.58-.48.46-.83l-3.35-10.15c-.12-.35-.51-.54-.88-.44l-.84.25c-.37.11-.58.48-.46.83Z"/>
      </g>
      <g>
        <rect class="cls-4" x="28.72" y="22.63" width="5.14" height="2.62" rx="1.31" ry="1.31" transform="translate(-1.6 2.25) rotate(-4.01)"/>
        <rect class="cls-4" x="30.82" y="10.7" width="2.62" height="14.48" rx="1.31" ry="1.31" transform="translate(-1.18 2.29) rotate(-4.01)"/>
      </g>
      <g>
        <rect class="cls-4" x="34.37" y="46.64" width="2.19" height="4.3" rx="1.1" ry="1.1" transform="translate(-17.32 19.6) rotate(-25.05)"/>
        <rect class="cls-4" x="34.35" y="46.54" width="12.12" height="2.19" rx="1.1" ry="1.1" transform="translate(-16.37 21.59) rotate(-25.05)"/>
      </g>
      <g>
        <rect class="cls-8" x="40.32" y="34.15" width="2.26" height="4.43" rx="1.13" ry="1.13" transform="translate(-5.63 65.08) rotate(-72.65)"/>
        <rect class="cls-8" x="37.76" y="30.68" width="12.48" height="2.26" rx="1.13" ry="1.13" transform="translate(.52 64.33) rotate(-72.65)"/>
      </g>
      <g>
        <rect class="cls-4" x="22.89" y="35.72" width="2.67" height="5.24" rx="1.33" ry="1.33" transform="translate(-4.61 3.34) rotate(-7.2)"/>
        <rect class="cls-4" x="10.69" y="36.49" width="14.76" height="2.67" rx="1.33" ry="1.33" transform="translate(-4.6 2.56) rotate(-7.2)"/>
      </g>
      <g>
        <rect class="cls-4" x="9.36" y="47.16" width="4.76" height="2.43" rx="1.21" ry="1.21" transform="translate(-38 50.21) rotate(-78.47)"/>
        <rect class="cls-4" x="5.38" y="39.43" width="2.43" height="13.41" rx="1.21" ry="1.21" transform="translate(-39.92 43.37) rotate(-78.47)"/>
      </g>
      <g>
        <path class="cls-8" d="M7.38,24.9l.77,3.78c.08.39.45.64.83.56l1.22-.26c.38-.08.62-.46.55-.85l-.77-3.78c-.08-.39-.45-.64-.83-.56l-1.22.26c-.38.08-.62.46-.55.85Z"/>
        <path class="cls-8" d="M20.93,21.32l-13.04,2.74c-.36.08-.59.43-.52.8l.27,1.32c.07.37.43.6.78.52l13.04-2.74c.36-.08.59-.43.52-.8l-.27-1.32c-.07-.37-.43-.6-.78-.52Z"/>
      </g>
      <g>
        <rect class="cls-4" x="15.47" y="10.61" width="4.67" height="2.38" rx="1.19" ry="1.19" transform="translate(-2.76 6.01) rotate(-17.81)"/>
        <rect class="cls-4" x="16.05" y="-.26" width="2.38" height="13.15" rx="1.19" ry="1.19" transform="translate(-1.11 5.58) rotate(-17.81)"/>
      </g>
    </g>
    <g>
      <path class="cls-3" d="M26.79,61.4H9.88c-1.77,0-3.21,1.44-3.21,3.21v2.82h6.46c2.9-4.43,8.57-5.33,13.66-6.03Z"/>
      <path class="cls-4" d="M42.61,61.4h-15.82c-5.09.7-10.76,1.6-13.66,6.03h16.57c3.99-2.98,8.55-5.18,13.52-5.97-.2-.04-.4-.06-.61-.06Z"/>
      <path class="cls-6" d="M45.82,64.64v-.03c0-1.57-1.12-2.87-2.6-3.15-4.97.79-9.53,2.99-13.52,5.97h13.12c.67-1.2,1.75-2.14,3-2.79Z"/>
      <path class="cls-8" d="M45.82,64.64c-1.25.64-2.33,1.59-3,2.79h3v-2.79Z"/>
      <path class="cls-5" d="M24.91,67.43H4.72c-2.22,0-4.02,1.8-4.02,4.02v.79c0,.69.56,1.25,1.25,1.25h10.37c1.58-5.04,7.98-4.68,12.6-6.06Z"/>
      <path class="cls-3" d="M37.72,67.43h-12.81c-4.61,1.37-11.02,1.02-12.6,6.06h20.69c-.06-3.4,1.94-5.2,4.71-6.06Z"/>
      <path class="cls-6" d="M49.8,67.99c-.05.28.17.62-.03.82h.28-.28c.2-.2-.02-.54.03-.82-.6-.35-1.3-.56-2.04-.56h-10.03c-2.77.85-4.78,2.66-4.71,6.06h17.51c.69,0,1.25-.56,1.25-1.25v-.79c0-1.47-.79-2.75-1.97-3.45Z"/>
      <path class="cls-7" d="M1.85,73.49c0,1.42,1.15,2.57,2.57,2.57h20.65c2.89-1.4,5.98-2.21,9.27-2.57H1.85Z"/>
      <path class="cls-8" d="M34.35,73.49c-3.29.37-6.39,1.17-9.27,2.57h23.25c1.28,0,2.31-1.03,2.31-2.31v-.26h-16.29Z"/>
      <path class="cls-5" d="M24.28,76.06H4.22l2.22,11.85h7.91c.34-5.44,4.44-10.83,9.92-11.85Z"/>
      <path class="cls-3" d="M44.51,76.06h-20.23c-5.48,1.02-9.58,6.41-9.92,11.85h22.37c-.19-5.02,2.78-10.7,7.79-11.85Z"/>
      <path class="cls-6" d="M48.37,76.06h-3.86c-5,1.14-7.98,6.83-7.79,11.85h9.35l2.3-11.85Z"/>
      <path class="cls-5" d="M32.24,93.47c-.57-1.13,0-2.83.57-3.97.18-.18.35-.38.51-.58H6.49v.12c.54,1.62,1.07,3.26,1.09,5.14h9.87c-1.36-.67-1.32-2.21-.79-3.26.57-.85,1.49-1.74,2.63-2.02-1.13.28-2.06,1.17-2.63,2.02-.53,1.05-.56,2.59.79,3.26h15.78c-.45-.14-.82-.37-.99-.71Z"/>
      <path class="cls-6" d="M33.27,88.91c-.16.2-.33.4-.51.58-.57,1.13-1.13,2.83-.57,3.97.17.34.54.57.99.71h11.76c.01-1.89.29-3.52,1.09-5.15v-.11h-12.77Z"/>
      <path class="cls-7" d="M44.95,94.17H7.54s0,.09,0,.14c0-.05,0-.09,0-.14h0c0,1.98,1.6,3.58,3.58,3.58h30.25c1.98,0,3.58-1.6,3.58-3.58h0Z"/>
      <path class="cls-5" d="M10.88,97.76l5.57,19.66c.32.23.59.52.98.69h7.42c.22-6.73-.61-15.68,4.42-20.36H10.88Z"/>
      <path class="cls-3" d="M37.47,97.76h-8.22c-5.02,4.68-4.19,13.63-4.42,20.36h4.59c1.53-6.49,1.22-17.95,8.04-20.36Z"/>
      <path class="cls-6" d="M41.61,97.76h-4.14c-6.82,2.41-6.51,13.86-8.04,20.36h5.18c.35-.22.66-.5.94-.81l6.05-19.35v-.2Z"/>
      <rect class="cls-7" x="5.9" y="87.91" width="40.59" height="1.22" rx=".61" ry=".61"/>
      <rect class="cls-8" x="17.49" y="119.23" width="16.83" height="2.93" rx="1.47" ry="1.47"/>
    </g>
  </g>
</svg>