<?xml version="1.0" encoding="UTF-8"?>
<svg id="Calque_2" data-name="Calque 2" xmlns="http://www.w3.org/2000/svg" viewBox="0 0 51.07 115.57">
  <defs>
    <style>
      .cls-1 {
        fill: #664237;
      }

      .cls-2 {
        fill: #3f2722;
      }

      .cls-3 {
        fill: #2d1b18;
      }

      .cls-4 {
        fill: #4c3029;
      }

      .cls-5 {
        fill: #75534b;
      }

      .cls-6 {
        fill: #967771;
      }

      .cls-7 {
        fill: #bfa9a6;
      }
    </style>
  </defs>
  <g id="Calque_1-2" data-name="Calque 1">
    <g>
      <circle class="cls-1" cx="25.5" cy="23.58" r="23.58"/>
      <circle class="cls-7" cx="25.5" cy="23.58" r="20.27"/>
      <path class="cls-6" d="M12.92,37.7c3.35,2.98,7.74,4.81,12.58,4.81,10.46,0,18.93-8.48,18.93-18.93S36.05,4.75,25.67,4.65c-9.4,7.34-14.44,19.53-12.75,33.05Z"/>
      <path class="cls-7" d="M6.56,23.58c0,5.62,2.47,10.66,6.36,14.13-1.69-13.52,3.35-25.71,12.75-33.05-.06,0-.12,0-.17,0C15.04,4.64,6.56,13.12,6.56,23.58Z"/>
      <g>
        <circle class="cls-3" cx="25.75" cy="24.52" r="2.09"/>
        <rect class="cls-3" x="24.21" y="19.66" width="14.59" height="1.49" rx=".74" ry=".74" transform="translate(-5.96 22.74) rotate(-36.49)"/>
        <rect class="cls-3" x="13.86" y="20.08" width="13.22" height="1.61" rx=".8" ry=".8" transform="translate(24.44 49.86) rotate(-143.39)"/>
        <circle class="cls-7" cx="25.75" cy="24.58" r=".61"/>
      </g>
      <g>
        <g>
          <rect class="cls-3" x="24.96" y="5.68" width="1.29" height="3.45" rx=".65" ry=".65"/>
          <rect class="cls-3" x="41.56" y="21.76" width="1.29" height="3.45" rx=".65" ry=".65" transform="translate(18.72 65.69) rotate(-90)"/>
          <rect class="cls-3" x="16.64" y="8.03" width="1.29" height="3.45" rx=".65" ry=".65" transform="translate(-2.55 10.3) rotate(-31)"/>
          <rect class="cls-3" x="39.15" y="13.26" width="1.29" height="3.45" rx=".65" ry=".65" transform="translate(47.45 56.82) rotate(-121)"/>
          <rect class="cls-3" x="11.13" y="13.52" width="1.29" height="3.37" rx=".65" ry=".65" transform="translate(-7.33 17.47) rotate(-59)"/>
          <rect class="cls-3" x="16.42" y="35.97" width="1.29" height="3.45" rx=".65" ry=".65" transform="translate(12.28 78.8) rotate(-149)"/>
        </g>
        <g>
          <rect class="cls-3" x="24.96" y="38.07" width="1.29" height="3.45" rx=".65" ry=".65"/>
          <rect class="cls-3" x="8.41" y="21.76" width="1.29" height="3.45" rx=".65" ry=".65" transform="translate(-14.43 32.54) rotate(-90)"/>
          <rect class="cls-3" x="33.33" y="35.79" width="1.29" height="3.45" rx=".65" ry=".65" transform="translate(-14.47 22.86) rotate(-31)"/>
          <rect class="cls-3" x="10.74" y="30.33" width="1.29" height="3.45" rx=".65" ry=".65" transform="translate(-10.23 58.33) rotate(-121)"/>
          <rect class="cls-3" x="38.93" y="30.18" width="1.29" height="3.45" rx=".65" ry=".65" transform="translate(-8.16 49.4) rotate(-59)"/>
          <rect class="cls-3" x="33.49" y="7.55" width="1.29" height="3.45" rx=".65" ry=".65" transform="translate(58.63 34.82) rotate(-149)"/>
        </g>
      </g>
    </g>
    <g>
      <path class="cls-1" d="M26.09,54.81H9.18c-1.77,0-3.21,1.44-3.21,3.21v2.82h6.46c2.9-4.43,8.57-5.33,13.66-6.03Z"/>
      <path class="cls-4" d="M41.91,54.81h-15.82c-5.09.7-10.76,1.6-13.66,6.03h16.57c3.99-2.98,8.55-5.18,13.52-5.97-.2-.04-.4-.06-.61-.06Z"/>
      <path class="cls-2" d="M45.12,58.05v-.03c0-1.57-1.12-2.87-2.6-3.15-4.97.79-9.53,2.99-13.52,5.97h13.12c.67-1.2,1.75-2.14,3-2.79Z"/>
      <path class="cls-3" d="M45.12,58.05c-1.25.64-2.33,1.59-3,2.79h3v-2.79Z"/>
      <path class="cls-5" d="M24.21,60.83H4.02c-2.22,0-4.02,1.8-4.02,4.02v.79c0,.69.56,1.25,1.25,1.25h10.37c1.58-5.04,7.98-4.68,12.6-6.06Z"/>
      <path class="cls-1" d="M37.02,60.83h-12.81c-4.61,1.37-11.02,1.02-12.6,6.06h20.69c-.06-3.4,1.94-5.2,4.71-6.06Z"/>
      <path class="cls-4" d="M49.1,61.4c-.05.28.17.62-.03.82h.28-.28c.2-.2-.02-.54.03-.82-.6-.35-1.3-.56-2.04-.56h-10.03c-2.77.85-4.78,2.66-4.71,6.06h17.51c.69,0,1.25-.56,1.25-1.25v-.79c0-1.47-.79-2.75-1.97-3.45Z"/>
      <path class="cls-4" d="M1.15,66.89c0,1.42,1.15,2.57,2.57,2.57h20.65c2.89-1.4,5.98-2.21,9.27-2.57H1.15Z"/>
      <path class="cls-2" d="M33.65,66.89c-3.29.37-6.39,1.17-9.27,2.57h23.25c1.28,0,2.31-1.03,2.31-2.31v-.26h-16.29Z"/>
      <path class="cls-5" d="M23.58,69.47H3.52l2.22,11.85h7.91c.34-5.44,4.44-10.83,9.92-11.85Z"/>
      <path class="cls-1" d="M43.81,69.47h-20.23c-5.48,1.02-9.58,6.41-9.92,11.85h22.37c-.19-5.02,2.78-10.7,7.79-11.85Z"/>
      <path class="cls-4" d="M47.67,69.47h-3.86c-5,1.14-7.98,6.83-7.79,11.85h9.35l2.3-11.85Z"/>
      <path class="cls-5" d="M31.54,86.87c-.57-1.13,0-2.83.57-3.97.18-.18.35-.38.51-.58H5.79v.12c.54,1.62,1.07,3.26,1.09,5.14h9.87c-1.36-.67-1.32-2.21-.79-3.26.57-.85,1.49-1.74,2.63-2.02-1.13.28-2.06,1.17-2.63,2.02-.53,1.05-.56,2.59.79,3.26h15.78c-.45-.14-.82-.37-.99-.71Z"/>
      <path class="cls-4" d="M32.58,82.32c-.16.2-.33.4-.51.58-.57,1.13-1.13,2.83-.57,3.97.17.34.54.57.99.71h11.76c.01-1.89.29-3.52,1.09-5.15v-.11h-12.77Z"/>
      <path class="cls-2" d="M44.25,87.58H6.84s0,.09,0,.14c0-.05,0-.09,0-.14h0c0,1.98,1.6,3.58,3.58,3.58h30.25c1.98,0,3.58-1.6,3.58-3.58h0Z"/>
      <path class="cls-5" d="M10.18,91.16l5.57,19.66c.32.23.59.52.98.69h7.42c.22-6.73-.61-15.68,4.42-20.36H10.18Z"/>
      <path class="cls-1" d="M36.77,91.16h-8.22c-5.02,4.68-4.19,13.63-4.42,20.36h4.59c1.53-6.49,1.22-17.95,8.04-20.36Z"/>
      <path class="cls-4" d="M40.91,91.16h-4.14c-6.82,2.41-6.51,13.86-8.04,20.36h5.18c.35-.22.66-.5.94-.81l6.05-19.35v-.2Z"/>
      <rect class="cls-2" x="5.2" y="81.31" width="40.59" height="1.22" rx=".61" ry=".61"/>
      <rect class="cls-3" x="16.79" y="112.64" width="16.83" height="2.93" rx="1.47" ry="1.47"/>
    </g>
  </g>
</svg>