<?xml version="1.0" encoding="UTF-8"?>
<svg id="Calque_2" data-name="Calque 2" xmlns="http://www.w3.org/2000/svg" viewBox="0 0 51.07 115.53">
  <defs>
    <style>
      .cls-1 {
        fill: #2d2524;
      }
    </style>
  </defs>
  <g id="Calque_1-2" data-name="Calque 1">
    <g>
      <circle class="cls-1" cx="24.34" cy="23.58" r="23.58"/>
      <circle class="cls-1" cx="24.34" cy="23.58" r="20.27"/>
      <circle class="cls-1" cx="24.34" cy="23.58" r="18.93"/>
      <g>
        <circle class="cls-1" cx="24.59" cy="24.52" r="2.09"/>
        <rect class="cls-1" x="23.06" y="19.66" width="14.59" height="1.49" rx=".74" ry=".74" transform="translate(-6.18 22.05) rotate(-36.49)"/>
        <rect class="cls-1" x="18.51" y="14.28" width="1.61" height="13.22" rx=".8" ry=".8" transform="translate(-8.97 23.94) rotate(-53.39)"/>
        <circle class="cls-1" cx="24.6" cy="24.58" r=".61"/>
      </g>
      <g>
        <g>
          <rect class="cls-1" x="23.81" y="5.68" width="1.29" height="3.45" rx=".65" ry=".65"/>
          <rect class="cls-1" x="39.33" y="22.84" width="3.45" height="1.29" rx=".65" ry=".65"/>
          <rect class="cls-1" x="15.49" y="8.03" width="1.29" height="3.45" rx=".65" ry=".65" transform="translate(-2.72 9.7) rotate(-31)"/>
          <rect class="cls-1" x="36.92" y="14.34" width="3.45" height="1.29" rx=".65" ry=".65" transform="translate(-2.2 22.05) rotate(-31)"/>
          <rect class="cls-1" x="9.97" y="13.52" width="1.29" height="3.37" rx=".65" ry=".65" transform="translate(-7.88 16.48) rotate(-59)"/>
          <rect class="cls-1" x="14.19" y="37.05" width="3.45" height="1.29" rx=".65" ry=".65" transform="translate(-24.59 31.92) rotate(-59)"/>
        </g>
        <g>
          <rect class="cls-1" x="23.81" y="38.07" width="1.29" height="3.45" rx=".65" ry=".65"/>
          <rect class="cls-1" x="6.18" y="22.84" width="3.45" height="1.29" rx=".65" ry=".65"/>
          <rect class="cls-1" x="32.17" y="35.79" width="1.29" height="3.45" rx=".65" ry=".65" transform="translate(-14.63 22.26) rotate(-31)"/>
          <rect class="cls-1" x="8.51" y="31.41" width="3.45" height="1.29" rx=".65" ry=".65" transform="translate(-15.05 9.85) rotate(-31)"/>
          <rect class="cls-1" x="37.77" y="30.18" width="1.29" height="3.45" rx=".65" ry=".65" transform="translate(-8.72 48.41) rotate(-59)"/>
          <rect class="cls-1" x="31.26" y="8.63" width="3.45" height="1.29" rx=".65" ry=".65" transform="translate(8.04 32.78) rotate(-59)"/>
        </g>
      </g>
    </g>
    <g>
      <path class="cls-1" d="M26.09,54.77H9.18c-1.77,0-3.21,1.44-3.21,3.21v2.82h6.46c2.9-4.43,8.57-5.33,13.66-6.03Z"/>
      <path class="cls-1" d="M41.91,54.77h-15.82c-5.09.7-10.76,1.6-13.66,6.03h16.57c3.99-2.98,8.55-5.18,13.52-5.97-.2-.04-.4-.06-.61-.06Z"/>
      <path class="cls-1" d="M45.12,58.01v-.03c0-1.57-1.12-2.87-2.6-3.15-4.97.79-9.53,2.99-13.52,5.97h13.12c.67-1.2,1.75-2.14,3-2.79Z"/>
      <path class="cls-1" d="M45.12,58.01c-1.25.64-2.33,1.59-3,2.79h3v-2.79Z"/>
      <path class="cls-1" d="M24.21,60.79H4.02c-2.22,0-4.02,1.8-4.02,4.02v.79c0,.69.56,1.25,1.25,1.25h10.37c1.58-5.04,7.98-4.68,12.6-6.06Z"/>
      <path class="cls-1" d="M37.02,60.79h-12.81c-4.61,1.37-11.02,1.02-12.6,6.06h20.69c-.06-3.4,1.94-5.2,4.71-6.06Z"/>
      <path class="cls-1" d="M49.1,61.36c-.05.28.17.62-.03.82h.28-.28c.2-.2-.02-.54.03-.82-.6-.35-1.3-.56-2.04-.56h-10.03c-2.77.85-4.78,2.66-4.71,6.06h17.51c.69,0,1.25-.56,1.25-1.25v-.79c0-1.47-.79-2.75-1.97-3.45Z"/>
      <path class="cls-1" d="M1.15,66.85c0,1.42,1.15,2.57,2.57,2.57h20.65c2.89-1.4,5.98-2.21,9.27-2.57H1.15Z"/>
      <path class="cls-1" d="M33.65,66.85c-3.29.37-6.39,1.17-9.27,2.57h23.25c1.28,0,2.31-1.03,2.31-2.31v-.26h-16.29Z"/>
      <path class="cls-1" d="M23.58,69.43H3.52l2.22,11.85h7.91c.34-5.44,4.44-10.83,9.92-11.85Z"/>
      <path class="cls-1" d="M43.81,69.43h-20.23c-5.48,1.02-9.58,6.41-9.92,11.85h22.37c-.19-5.02,2.78-10.7,7.79-11.85Z"/>
      <path class="cls-1" d="M47.67,69.43h-3.86c-5,1.14-7.98,6.83-7.79,11.85h9.35l2.3-11.85Z"/>
      <path class="cls-1" d="M31.54,86.83c-.57-1.13,0-2.83.57-3.97.18-.18.35-.38.51-.58H5.79v.12c.54,1.62,1.07,3.26,1.09,5.14h9.87c-1.36-.67-1.32-2.21-.79-3.26.57-.85,1.49-1.74,2.63-2.02-1.13.28-2.06,1.17-2.63,2.02-.53,1.05-.56,2.59.79,3.26h15.78c-.45-.14-.82-.37-.99-.71Z"/>
      <path class="cls-1" d="M32.58,82.28c-.16.2-.33.4-.51.58-.57,1.13-1.13,2.83-.57,3.97.17.34.54.57.99.71h11.76c.01-1.89.29-3.52,1.09-5.15v-.11h-12.77Z"/>
      <path class="cls-1" d="M44.25,87.54H6.84s0,.09,0,.14c0-.05,0-.09,0-.14h0c0,1.98,1.6,3.58,3.58,3.58h30.25c1.98,0,3.58-1.6,3.58-3.58h0Z"/>
      <path class="cls-1" d="M10.18,91.12l5.57,19.66c.32.23.59.52.98.69h7.42c.22-6.73-.61-15.68,4.42-20.36H10.18Z"/>
      <path class="cls-1" d="M36.77,91.12h-8.22c-5.02,4.68-4.19,13.63-4.42,20.36h4.59c1.53-6.49,1.22-17.95,8.04-20.36Z"/>
      <path class="cls-1" d="M40.91,91.12h-4.14c-6.82,2.41-6.51,13.86-8.04,20.36h5.18c.35-.22.66-.5.94-.81l6.05-19.35v-.2Z"/>
      <rect class="cls-1" x="5.2" y="81.27" width="40.59" height="1.22" rx=".61" ry=".61"/>
      <rect class="cls-1" x="16.79" y="112.6" width="16.83" height="2.93" rx="1.47" ry="1.47"/>
    </g>
  </g>
</svg>