<?xml version="1.0" encoding="UTF-8"?>
<svg id="Calque_2" data-name="Calque 2" xmlns="http://www.w3.org/2000/svg" viewBox="0 0 51.07 108.44">
  <defs>
    <style>
      .cls-1 {
        fill: #d78960;
      }

      .cls-2 {
        fill: #ab5e32;
      }

      .cls-3 {
        fill: #c47854;
      }

      .cls-4 {
        fill: #f8ac80;
      }

      .cls-5 {
        fill: #ac6043;
      }

      .cls-6 {
        fill: #873d29;
      }
    </style>
  </defs>
  <g id="Calque_1-2" data-name="Calque 1">
    <g>
      <g>
        <path class="cls-1" d="M30.56,32.67c8.19-1.32,13.21-8.46,17.17-15.06,2.37-3.76,2.53-8.26,1.12-12.27-.2-.31-.42-.63-.66-.93-.61-.77-1.2-1.57-2.29-1.44-.28.03-.69.17-.96.25-4.11,1.23-7.66,4.25-9.14,8.33-1.25,3.46-.71,7.26-1.76,10.77-1.38,4.61-4.97,7.75-9.19,9.75-.1.05-.2.09-.3.13,1.96.62,4.06.79,6.01.48Z"/>
        <path class="cls-2" d="M48.86,5.33c1.4,4.02,1.25,8.52-1.12,12.27-3.96,6.61-8.98,13.74-17.17,15.06-1.95.31-4.05.14-6.01-.48-.31.12-.63.24-.9.38-.43.23-.48.81-.08,1.1.61.44,2.25.84,3,.96,7.45,1.13,15.49-4.51,19.9-10.06,4.16-5.23,6.21-13.33,2.38-19.24Z"/>
        <path class="cls-1" d="M18.38,26.61c.35,1.59,1.12,3.45,2.17,4.62.91,1.02,1.74.63,2.82.19,3.91-1.59,7.49-4.29,9.15-8.29,1.46-3.53.85-7.45,1.89-11.08.92-3.21,2.99-5.92,5.69-7.8-4.51.76-8.88,2.43-12.97,5.16-6.05,4.11-8.39,10.51-8.75,17.19Z"/>
        <path class="cls-4" d="M44.05,2.26c.18-.1.3-.28.32-.48.06-.54-.36-.68-.77-.85-1.64-.69-3.6-.99-5.38-.92-5.3.21-10.12,3.16-13.44,7.16-4.15,5-7.71,12.39-6.49,19.05.02.13.05.26.08.39.36-6.68,2.7-13.09,8.75-17.19,4.09-2.73,8.46-4.4,12.97-5.16.79-.55,1.63-1.03,2.52-1.43.43-.19,1.06-.36,1.44-.57Z"/>
      </g>
      <g>
        <path class="cls-2" d="M22.43,33.24c-.01-.18,0-.37.05-.56-.63.18-1.32.06-1.88-.26-.51-.29-.88-.79-1.22-1.27-2.67-3.8-2.61-8.84-1.42-13.17.14-.52.51-1.38.5-1.87-.03-.86-.22-1.98-.39-2.83-1.03-4.9-4.82-8.61-9.54-10.05-.9-.28-1.58-.5-2.31.05-2.28,11.96,4.03,27.06,16.22,29.95Z"/>
        <path class="cls-6" d="M22.43,33.24C10.24,30.35,3.93,15.25,6.21,3.29c-.08.06-.17.13-.25.21-1.66,1.61-2.8,4.16-3.21,6.42-1,5.53,1.13,11.08,4.66,15.27,4.05,4.81,9.86,8.84,16.25,9.53l-.65-.37c-.37-.29-.56-.68-.59-1.11Z"/>
        <path class="cls-3" d="M22.62,8.55c.26-.36.52-.72.79-1.07.58-.75,1.2-1.5,1.86-2.19.22-.23.5-.45.71-.68.02-.02.05-.03.04-.07C22.91,1.85,18.78,0,14.62,0c3.24,2.2,5.89,5.17,8,8.55Z"/>
        <path class="cls-2" d="M14.62,0c-1.2,0-2.4.15-3.57.49-.38.11-1.61.5-1.86.74-.38.36-.18.89.26,1.09.37.17.79.29,1.17.45,4.3,1.88,7.55,5.54,8.57,10.16.08.35.12.7.19,1.05,0,.05-.02.05.06.04.87-1.93,1.95-3.77,3.19-5.49C20.51,5.17,17.86,2.21,14.62,0Z"/>
      </g>
    </g>
    <g>
      <path class="cls-1" d="M26.09,47.68H9.18c-1.77,0-3.21,1.44-3.21,3.21v2.82h6.46c2.9-4.43,8.57-5.33,13.66-6.03Z"/>
      <path class="cls-3" d="M41.91,47.68h-15.82c-5.09.7-10.76,1.6-13.66,6.03h16.57c3.99-2.98,8.55-5.18,13.52-5.97-.2-.04-.4-.06-.61-.06Z"/>
      <path class="cls-5" d="M45.12,50.92v-.03c0-1.57-1.12-2.87-2.6-3.15-4.97.79-9.53,2.99-13.52,5.97h13.12c.67-1.2,1.75-2.14,3-2.79Z"/>
      <path class="cls-2" d="M45.12,50.92c-1.25.64-2.33,1.59-3,2.79h3v-2.79Z"/>
      <path class="cls-4" d="M24.21,53.71H4.02c-2.22,0-4.02,1.8-4.02,4.02v.79c0,.69.56,1.25,1.25,1.25h10.37c1.58-5.04,7.98-4.68,12.6-6.06Z"/>
      <path class="cls-1" d="M37.02,53.71h-12.81c-4.61,1.37-11.02,1.02-12.6,6.06h20.69c-.06-3.4,1.94-5.2,4.71-6.06Z"/>
      <path class="cls-3" d="M49.1,54.27c-.05.28.17.62-.03.82h.28-.28c.2-.2-.02-.54.03-.82-.6-.35-1.3-.56-2.04-.56h-10.03c-2.77.85-4.78,2.66-4.71,6.06h17.51c.69,0,1.25-.56,1.25-1.25v-.79c0-1.47-.79-2.75-1.97-3.45Z"/>
      <path class="cls-3" d="M1.15,59.77c0,1.42,1.15,2.57,2.57,2.57h20.65c2.89-1.4,5.98-2.21,9.27-2.57H1.15Z"/>
      <path class="cls-2" d="M33.65,59.77c-3.29.37-6.39,1.17-9.27,2.57h23.25c1.28,0,2.31-1.03,2.31-2.31v-.26h-16.29Z"/>
      <path class="cls-4" d="M23.58,62.34H3.52l2.22,11.85h7.91c.34-5.44,4.44-10.83,9.92-11.85Z"/>
      <path class="cls-1" d="M43.81,62.34h-20.23c-5.48,1.02-9.58,6.41-9.92,11.85h22.37c-.19-5.02,2.78-10.7,7.79-11.85Z"/>
      <path class="cls-3" d="M47.67,62.34h-3.86c-5,1.14-7.98,6.83-7.79,11.85h9.35l2.3-11.85Z"/>
      <path class="cls-4" d="M31.54,79.75c-.57-1.13,0-2.83.57-3.97.18-.18.35-.38.51-.58H5.79v.12c.54,1.62,1.07,3.26,1.09,5.14h9.87c-1.36-.67-1.32-2.21-.79-3.26.57-.85,1.49-1.74,2.63-2.02-1.13.28-2.06,1.17-2.63,2.02-.53,1.05-.56,2.59.79,3.26h15.78c-.45-.14-.82-.37-.99-.71Z"/>
      <path class="cls-3" d="M32.58,75.2c-.16.2-.33.4-.51.58-.57,1.13-1.13,2.83-.57,3.97.17.34.54.57.99.71h11.76c.01-1.89.29-3.52,1.09-5.15v-.11h-12.77Z"/>
      <path class="cls-2" d="M44.25,80.45H6.84s0,.09,0,.14c0-.05,0-.09,0-.14h0c0,1.98,1.6,3.58,3.58,3.58h30.25c1.98,0,3.58-1.6,3.58-3.58h0Z"/>
      <path class="cls-4" d="M10.18,84.04l5.57,19.66c.32.23.59.52.98.69h7.42c.22-6.73-.61-15.68,4.42-20.36H10.18Z"/>
      <path class="cls-1" d="M36.77,84.04h-8.22c-5.02,4.68-4.19,13.63-4.42,20.36h4.59c1.53-6.49,1.22-17.95,8.04-20.36Z"/>
      <path class="cls-3" d="M40.91,84.04h-4.14c-6.82,2.41-6.51,13.86-8.04,20.36h5.18c.35-.22.66-.5.94-.81l6.05-19.35v-.2Z"/>
      <rect class="cls-2" x="5.2" y="74.19" width="40.59" height="1.22" rx=".61" ry=".61"/>
      <rect class="cls-2" x="16.79" y="105.51" width="16.83" height="2.93" rx="1.47" ry="1.47"/>
    </g>
  </g>
</svg>