<?xml version="1.0" encoding="UTF-8"?>
<svg id="Calque_2" data-name="Calque 2" xmlns="http://www.w3.org/2000/svg" viewBox="0 0 51.07 117.68">
  <defs>
    <style>
      .cls-1 {
        fill: #f9d25f;
      }

      .cls-2 {
        fill: #f4c85b;
      }

      .cls-3 {
        fill: #ffe07d;
      }

      .cls-4 {
        fill: #f4c245;
      }

      .cls-5 {
        fill: #dda526;
      }

      .cls-6 {
        fill: #bc8515;
      }

      .cls-7 {
        fill: #d3a648;
      }
    </style>
  </defs>
  <g id="Calque_1-2" data-name="Calque 1">
    <g>
      <g>
        <g>
          <path class="cls-5" d="M47.54,9.68c-.05-1.63-2.28-3.98-3.88-3.98h-2.44v4.07c0,.1-.27.76-.35.9-1,1.96-3.78,2.21-5.16.48-.18-.22-.63-1.04-.63-1.29v-4.17h-1.68c-.25,4.08-.63,8.14-1.44,12.08h13.47v15.1c.99-4.13,1.68-8.3,2.11-12.49v-10.71Z"/>
          <path class="cls-5" d="M10.5,47.2c-1.1.72-2.21,1.4-3.35,2.03.27.08.56.14.85.18h29.27c.68-.7,1.32-1.47,1.93-2.27l-28.69.05Z"/>
          <path class="cls-6" d="M45.43,32.88v11.98c0,.89-.94,2.1-1.84,2.28h-4.4c-.6.81-1.25,1.57-1.93,2.27h6.01c2.15-.15,4.01-1.94,4.26-4.07v-24.95c-.43,4.19-1.13,8.36-2.11,12.49Z"/>
          <path class="cls-3" d="M33.4,5.7s0,0,0,0h-17.01v3.21c0,.14,0,.28-.02.41,5.18-1.08,10.36-1.78,15.55-3.31.5-.11.99-.21,1.48-.31Z"/>
          <path class="cls-4" d="M31.91,6.01c-5.18,1.54-10.36,2.24-15.55,3.31-.18,1.74-1.49,3.03-3.16,2.98-.94,1.89-2.01,3.72-3.19,5.47h21.94c.81-3.94,1.19-8,1.44-12.08-.49.1-.98.2-1.48.31Z"/>
          <path class="cls-4" d="M3.83,45.24c.23,1.9,1.55,3.45,3.32,3.99,1.14-.64,2.26-1.32,3.35-2.03h-2.41c-.74.04-2.06-1.19-2.06-1.86v-22.35c-.12.14-.24.27-.36.41-.29,5.88-.63,11.7-1.84,17.64v4.21Z"/>
          <path class="cls-3" d="M3.83,41.03c1.21-5.94,1.55-11.76,1.84-17.64-.6.68-1.21,1.35-1.84,2v15.63Z"/>
          <path class="cls-3" d="M10.16,5.7h-2.44c-1.64,0-3.85,2.4-3.88,4.07v15.62c.63-.65,1.24-1.32,1.84-2,.11-2.17.21-4.35.35-6.55,0-2.91,1.59-5.02,4.49-6.08.01,0,.02,0,.04,0-.24-.35-.39-.73-.39-1.08v-3.98Z"/>
          <path class="cls-4" d="M6.02,16.84c-.14,2.2-.24,4.38-.35,6.55.12-.14.25-.27.36-.41v-5.2h3.98c1.18-1.76,2.25-3.59,3.19-5.47-.32-.01-.65-.06-.99-.18-.57-.19-1.25-.74-1.67-1.37-.01,0-.02,0-.04,0-2.91,1.06-4.49,3.17-4.49,6.08Z"/>
        </g>
        <path class="cls-5" d="M13.6,11.08c1.05-.17,1.85-1.07,1.85-2.16v-3.14c-.31,1.85-.85,3.68-1.85,5.3Z"/>
        <path class="cls-3" d="M15.44,2.19c0-1.21-.98-2.19-2.19-2.19s-2.19.98-2.19,2.19v6.73c0,1.21.98,2.19,2.19,2.19.12,0,.23-.01.35-.03,1-1.61,1.53-3.45,1.85-5.3v-3.59Z"/>
        <rect class="cls-5" x="35.98" y=".14" width="4.38" height="11.11" rx="2.19" ry="2.19"/>
      </g>
      <g>
        <rect class="cls-4" x="9.37" y="20.76" width="9.47" height="6.35" rx=".92" ry=".92"/>
        <path class="cls-4" d="M28.94,27.13c.56-1.2,1.06-2.43,1.49-3.68v-1.75c0-.51-.41-.92-.92-.92h-7.62c-.51,0-.92.41-.92.92v4.5c0,.51.41.92.92.92h7.06Z"/>
        <path class="cls-5" d="M30.42,26.21v-2.75c-.43,1.25-.92,2.47-1.49,3.68h.56c.51,0,.92-.41.92-.92Z"/>
        <rect class="cls-5" x="32.59" y="20.76" width="9.47" height="6.35" rx=".92" ry=".92"/>
        <rect class="cls-4" x="9.41" y="29.3" width="9.47" height="6.35" rx=".92" ry=".92"/>
        <path class="cls-4" d="M23.34,35.67c.86-1.04,1.69-2.12,2.49-3.24.73-1.02,1.39-2.06,1.98-3.12h-5.9c-.51,0-.92.41-.92.92v4.5c0,.51.41.92.92.92h1.43Z"/>
        <path class="cls-5" d="M30.46,34.74v-4.5c0-.51-.41-.92-.92-.92h-1.72c-.59,1.06-1.25,2.1-1.98,3.12-.8,1.12-1.63,2.19-2.49,3.24h6.19c.51,0,.92-.41.92-.92Z"/>
        <rect class="cls-5" x="32.63" y="29.3" width="9.47" height="6.35" rx=".92" ry=".92"/>
        <path class="cls-5" d="M17.93,44.21c.51,0,.92-.41.92-.92v-2.75c-1.35,1.3-2.75,2.53-4.2,3.68h3.27Z"/>
        <path class="cls-4" d="M17.93,37.85h-7.62c-.51,0-.92.41-.92.92v4.5c0,.51.41.92.92.92h4.35c1.45-1.15,2.85-2.38,4.2-3.68v-1.75c0-.51-.41-.92-.92-.92Z"/>
        <rect class="cls-5" x="20.97" y="37.87" width="9.47" height="6.35" rx=".92" ry=".92"/>
        <path class="cls-6" d="M42.07,43.19v-.65c-.27.53-.56,1.05-.86,1.57.48-.03.86-.43.86-.92Z"/>
        <path class="cls-5" d="M41.15,37.76h-7.62c-.51,0-.92.41-.92.92v4.5c0,.51.41.92.92.92h7.62s.04,0,.07,0c.3-.52.59-1.04.86-1.57v-3.85c0-.51-.41-.92-.92-.92Z"/>
      </g>
    </g>
    <g>
      <path class="cls-1" d="M26.09,56.91H9.18c-1.77,0-3.21,1.44-3.21,3.21v2.82h6.46c2.9-4.43,8.57-5.33,13.66-6.03Z"/>
      <path class="cls-2" d="M41.91,56.91h-15.82c-5.09.7-10.76,1.6-13.66,6.03h16.57c3.99-2.98,8.55-5.18,13.52-5.97-.2-.04-.4-.06-.61-.06Z"/>
      <path class="cls-4" d="M45.12,60.16v-.03c0-1.57-1.12-2.87-2.6-3.15-4.97.79-9.53,2.99-13.52,5.97h13.12c.67-1.2,1.75-2.14,3-2.79Z"/>
      <path class="cls-7" d="M45.12,60.16c-1.25.64-2.33,1.59-3,2.79h3v-2.79Z"/>
      <path class="cls-3" d="M24.21,62.94H4.02c-2.22,0-4.02,1.8-4.02,4.02v.79c0,.69.56,1.25,1.25,1.25h10.37c1.58-5.04,7.98-4.68,12.6-6.06Z"/>
      <path class="cls-1" d="M37.02,62.94h-12.81c-4.61,1.37-11.02,1.02-12.6,6.06h20.69c-.06-3.4,1.94-5.2,4.71-6.06Z"/>
      <path class="cls-4" d="M49.1,63.51c-.05.28.17.62-.03.82h.28-.28c.2-.2-.02-.54.03-.82-.6-.35-1.3-.56-2.04-.56h-10.03c-2.77.85-4.78,2.66-4.71,6.06h17.51c.69,0,1.25-.56,1.25-1.25v-.79c0-1.47-.79-2.75-1.97-3.45Z"/>
      <path class="cls-5" d="M1.15,69c0,1.42,1.15,2.57,2.57,2.57h20.65c2.89-1.4,5.98-2.21,9.27-2.57H1.15Z"/>
      <path class="cls-7" d="M33.65,69c-3.29.37-6.39,1.17-9.27,2.57h23.25c1.28,0,2.31-1.03,2.31-2.31v-.26h-16.29Z"/>
      <path class="cls-3" d="M23.58,71.58H3.52l2.22,11.85h7.91c.34-5.44,4.44-10.83,9.92-11.85Z"/>
      <path class="cls-1" d="M43.81,71.58h-20.23c-5.48,1.02-9.58,6.41-9.92,11.85h22.37c-.19-5.02,2.78-10.7,7.79-11.85Z"/>
      <path class="cls-4" d="M47.67,71.58h-3.86c-5,1.14-7.98,6.83-7.79,11.85h9.35l2.3-11.85Z"/>
      <path class="cls-3" d="M31.54,88.98c-.57-1.13,0-2.83.57-3.97.18-.18.35-.38.51-.58H5.79v.12c.54,1.62,1.07,3.26,1.09,5.14h9.87c-1.36-.67-1.32-2.21-.79-3.26.57-.85,1.49-1.74,2.63-2.02-1.13.28-2.06,1.17-2.63,2.02-.53,1.05-.56,2.59.79,3.26h15.78c-.45-.14-.82-.37-.99-.71Z"/>
      <path class="cls-4" d="M32.58,84.43c-.16.2-.33.4-.51.58-.57,1.13-1.13,2.83-.57,3.97.17.34.54.57.99.71h11.76c.01-1.89.29-3.52,1.09-5.15v-.11h-12.77Z"/>
      <path class="cls-5" d="M44.25,89.69H6.84s0,.09,0,.14c0-.05,0-.09,0-.14h0c0,1.98,1.6,3.58,3.58,3.58h30.25c1.98,0,3.58-1.6,3.58-3.58h0Z"/>
      <path class="cls-3" d="M10.18,93.27l5.57,19.66c.32.23.59.52.98.69h7.42c.22-6.73-.61-15.68,4.42-20.36H10.18Z"/>
      <path class="cls-1" d="M36.77,93.27h-8.22c-5.02,4.68-4.19,13.63-4.42,20.36h4.59c1.53-6.49,1.22-17.95,8.04-20.36Z"/>
      <path class="cls-4" d="M40.91,93.27h-4.14c-6.82,2.41-6.51,13.86-8.04,20.36h5.18c.35-.22.66-.5.94-.81l6.05-19.35v-.2Z"/>
      <rect class="cls-5" x="5.2" y="83.42" width="40.59" height="1.22" rx=".61" ry=".61"/>
      <rect class="cls-7" x="16.79" y="114.74" width="16.83" height="2.93" rx="1.47" ry="1.47"/>
    </g>
  </g>
</svg>